<svg width="135" height="126" viewBox="0 0 135 126" fill="none" xmlns="http://www.w3.org/2000/svg">
<path fill-rule="evenodd" clip-rule="evenodd" d="M23.1534 72.8355C22.4371 72.0113 21.7195 71.1856 21.0195 70.3444C21.4166 70.0864 21.8286 69.8284 22.2478 69.5659L22.273 69.5501C23.2289 68.9516 24.2217 68.3299 25.1629 67.6359C34.4691 60.7719 43.567 53.6328 51.9492 45.6372C58.2907 39.5873 64.1026 33.0342 68.8399 25.582C71.809 20.912 74.2264 15.9961 75.2811 10.4964C76.1187 6.11724 74.6497 2.76465 71.1598 0.91504C69.5578 0.0651386 67.8207 -0.133918 66.0946 0.0785711C60.3846 0.778614 56.2899 4.2296 52.656 8.38959C52.1553 8.9644 52.3259 9.59061 52.9552 9.87018C53.5601 10.1386 54.3112 10.3689 54.925 10.2437C55.7249 10.0782 56.4959 9.61745 57.2028 9.16121C57.9905 8.65401 58.7634 8.12175 59.5361 7.58958L59.5371 7.58885L59.538 7.58825C60.6251 6.83956 61.712 6.09099 62.8397 5.41275C64.9845 4.12449 67.2867 3.1896 69.8636 3.41773C71.583 3.56983 72.2699 4.27432 72.5469 5.98977C73.0055 8.84585 72.0794 11.4537 71.0402 14.0056C68.0179 21.4287 63.6019 27.9639 58.3638 33.9512C49.9019 43.6243 40.3985 52.1701 30.2636 60.0025C27.6384 62.0309 24.9111 63.9242 22.1843 65.8171L22.1834 65.8177L22.1809 65.8194C21.2287 66.4805 20.2765 67.1414 19.3288 67.8081C19.0098 68.0318 18.4979 68.2085 18.1501 68.119C16.9339 67.8035 15.7321 67.4336 14.498 67.0538L14.4977 67.0537L14.4974 67.0536L14.4949 67.0528L14.4842 67.0495C14.0433 66.9138 13.5982 66.7768 13.1469 66.6406C13.1488 66.6334 13.1522 66.6183 13.1571 66.5969L13.1572 66.5966C13.1794 66.4979 13.2317 66.2657 13.3153 66.0457C13.7569 64.8942 14.1831 63.7357 14.6093 62.5772C15.5837 59.9286 16.5581 57.2802 17.7158 54.7176C19.8548 49.983 22.0596 45.2797 24.2644 40.5764L24.2652 40.5748C26.1461 36.5625 28.027 32.5503 29.867 28.5186C31.0037 26.0293 31.8966 23.4103 32.6876 20.7846C33.0156 19.6909 32.9314 18.4071 32.7785 17.2463C32.5768 15.7322 31.2363 15.1708 30.0132 16.052C29.1912 16.647 28.3935 17.3716 27.8174 18.2013C22.8696 25.3248 19.2313 33.1371 16.2312 41.258C12.4777 51.4142 9.16516 61.718 6.43756 72.2052C6.19604 73.1311 5.80828 73.697 4.84664 73.9273C3.87073 74.1613 2.91879 74.4921 1.96824 74.8224L1.95444 74.8272L1.95261 74.8278L1.94753 74.8296L1.94635 74.83C1.82296 74.8729 1.69959 74.9157 1.57619 74.9584C-0.214144 75.5779 -0.464523 76.1326 0.749711 77.64C1.3072 78.3339 2.03568 78.8873 2.81646 79.4805L2.81667 79.4807L2.81744 79.4813C3.18146 79.7579 3.55683 80.0431 3.93154 80.3552C2.7306 84.2334 2.4359 88.5298 2.70623 92.8642C2.74389 93.4569 3.20255 94.2732 3.69445 94.517C4.19078 94.763 5.14577 94.6445 5.58671 94.2912C6.20269 93.7946 6.72782 92.9895 6.94718 92.2156C8.60014 86.376 11.5582 81.1916 14.7489 76.1236C15.1455 75.4969 15.6959 74.9664 16.2444 74.4378C16.4436 74.2458 16.6426 74.054 16.8339 73.858C17.4166 73.2631 17.9794 73.3145 18.5046 73.9765C19.0609 74.6786 19.6349 75.3686 20.209 76.0587L20.2101 76.0601C21.4167 77.5104 22.6233 78.9607 23.6651 80.5229C25.2675 82.9265 26.783 85.388 28.2987 87.8497C29.4133 89.66 30.528 91.4704 31.6772 93.2578C37.0638 101.634 43.0707 109.502 50.5932 116.075C57.1008 121.761 64.4416 125.505 73.2116 125.956C76.2627 126.115 79.2562 125.842 82.2142 125.12L82.2328 125.115C82.8313 124.969 83.5197 124.8 83.557 123.756C83.3441 123.756 83.1371 123.753 82.934 123.751L82.9312 123.751C82.4947 123.746 82.0764 123.742 81.6581 123.76C72.3298 124.165 64.0517 121.286 56.7862 115.462C49.3989 109.54 43.4651 102.285 38.247 94.403C37.0579 92.6068 35.8845 90.7995 34.7111 88.9921L34.7097 88.9899C32.4046 85.4395 30.0994 81.8889 27.6756 78.4228C26.308 76.4652 24.7337 74.6538 23.1534 72.8355ZM13.144 70.8222C12.6348 71.0556 12.1233 71.2901 11.536 71.5588C11.716 71.0356 11.8726 70.5821 12.0271 70.1346L12.0295 70.1277L12.0296 70.1273L12.0345 70.1133C12.178 69.6977 12.32 69.2863 12.4777 68.828C13.0939 69.2261 13.625 69.5681 14.2956 70.0001L14.5627 70.1721C14.0564 70.4039 13.6012 70.6126 13.144 70.8222Z" fill="black"/>
<path fill-rule="evenodd" clip-rule="evenodd" d="M80.5026 73.735C80.7599 73.3796 81.0281 73.0093 81.3168 72.6212L81.3213 72.6189C81.3624 72.8395 81.3974 73.0313 81.4288 73.2034L81.4294 73.2069L81.431 73.2156L81.4313 73.2172C81.4936 73.5585 81.5419 73.8233 81.596 74.0861C81.9683 75.8843 82.4624 77.6333 83.6766 79.0736C85.3274 81.0329 87.9353 81.252 89.6968 79.4136C90.8911 78.1656 91.937 76.7431 92.8853 75.2894C93.5415 74.2804 94.0991 73.2065 94.6572 72.1317L94.6576 72.1311C94.9022 71.6599 95.147 71.1885 95.4002 70.7224C98.3095 72.7375 99.9292 72.6077 102.468 70.1654C102.496 70.1385 102.525 70.1116 102.553 70.0847L102.634 70.0068C102.692 69.9518 102.749 69.8967 102.807 69.8416L102.816 69.8333C103.478 69.2006 104.142 68.5666 104.742 67.8774C105.6 66.8914 106.426 65.878 107.281 64.829L107.282 64.8283C107.65 64.3762 108.025 63.9174 108.409 63.4513C108.409 63.6051 108.413 63.7476 108.416 63.8823V63.883L108.416 63.8838V63.8843C108.423 64.1501 108.429 64.3853 108.404 64.6165C108.285 65.7004 108.16 66.7836 108.036 67.8668L108.035 67.8699C107.828 69.6713 107.622 71.4726 107.436 73.2765C107.341 74.2069 106.922 74.8041 106.16 75.3364C101.443 78.6398 97.4365 82.6879 94.1195 87.4093C90.8069 92.1262 88.8105 97.2568 89.3401 103.19C89.8054 108.39 92.615 111.282 97.6403 111.595C99.6412 111.721 101.163 111.135 102.265 109.26C104.201 105.961 105.566 102.443 106.647 98.8C108.748 91.728 110.182 84.504 111.256 77.2084C111.444 75.9223 111.923 75.1351 113.095 74.4797C118.036 71.7176 123.317 70.0871 128.865 69.1948C130.506 68.9319 132.131 68.5362 133.752 68.1417L133.937 68.0966C134.568 67.9423 135.135 67.5845 134.971 66.7614C134.737 65.5828 133.591 64.8312 132.399 65.037C132.291 65.0551 132.184 65.0747 132.076 65.0942L132.075 65.0945C131.784 65.1474 131.492 65.2004 131.198 65.2249C124.73 65.7483 118.708 67.7209 113.04 70.8633C112.841 70.9729 112.636 71.0704 112.398 71.1835C112.267 71.2457 112.127 71.3126 111.972 71.3888C111.977 71.3031 111.983 71.2217 111.989 71.144C111.995 71.0579 112.001 70.9764 112.007 70.8984C112.03 70.6026 112.049 70.3583 112.052 70.114C112.065 69.1512 112.082 68.1885 112.1 67.2257L112.1 67.2249C112.151 64.4285 112.203 61.6328 112.14 58.8395C112.118 57.8375 111.584 56.7685 111.041 55.8806C110.549 55.0754 109.672 54.6169 108.429 54.7422C109.593 57.1259 108.405 58.8457 107.217 60.5664L107.186 60.6109C107.123 60.7 107.065 60.7917 107.007 60.8833C106.945 60.9802 106.884 61.0769 106.818 61.17C104.766 64.044 102.712 66.918 99.9314 69.1456C99.698 69.3307 99.3836 69.4133 99.07 69.4957C98.9252 69.5337 98.7805 69.5717 98.6441 69.6197C98.6175 69.4784 98.5764 69.3341 98.5354 69.1898L98.5353 69.1895L98.5352 69.189C98.4465 68.8768 98.3576 68.5643 98.4136 68.28C98.7068 66.7892 99.027 65.3035 99.3472 63.8179C99.591 62.6869 99.8348 61.556 100.067 60.423C100.101 60.2547 100.136 60.0864 100.171 59.9178C100.394 58.8472 100.618 57.7701 100.674 56.688C100.758 55.024 99.0163 53.4651 97.4365 53.8028C98.5286 54.8894 98.1112 55.9084 97.6882 56.9411C97.5722 57.2242 97.4558 57.5083 97.37 57.7951C97.2213 58.2937 97.0715 58.7921 96.9217 59.2906C96.1939 61.7116 95.466 64.1331 94.8706 66.5869C94.5892 67.7477 94.2635 68.8034 93.6475 69.8322C92.9271 71.0363 92.2483 72.2658 91.5693 73.4955L91.569 73.496L91.5686 73.4966C90.9551 74.6077 90.3414 75.7192 89.6968 76.8125C89.6303 76.9255 89.5657 77.0467 89.4999 77.1703C89.1447 77.8371 88.7525 78.5733 87.8179 78.4563C86.8878 78.3406 86.5692 77.5789 86.2579 76.8346C86.1902 76.6728 86.1229 76.5118 86.0497 76.3585C85.9827 76.2194 85.936 76.0677 85.8899 75.918L85.8898 75.9176C85.8811 75.8893 85.8724 75.861 85.8636 75.8329C84.9396 72.8292 84.8776 69.745 85.0437 66.6451C85.0637 66.2649 85.2786 65.8623 85.498 65.5335C90.9244 57.4327 94.7443 48.6028 97.2083 39.1646C98.2452 35.1924 99.0141 31.1756 98.6729 27.029C98.5887 26.0092 98.2098 25.1481 97.2016 24.7164C96.1934 24.287 95.3071 24.6046 94.5316 25.2599C94.0264 25.6871 93.5035 26.1501 93.1601 26.707C92.8977 27.1315 92.6292 27.5541 92.3603 27.977L92.36 27.9776C91.4322 29.4371 90.5014 30.9014 89.8143 32.4706C84.7424 44.0649 81.7888 56.1848 81.2282 68.8727C81.2083 69.3379 81.1706 69.897 80.9158 70.2415L80.7632 70.4469C79.1322 72.6423 77.4975 74.8425 75.742 76.9355C74.5123 78.4027 73.6237 78.2394 72.7529 76.5038C71.6982 74.4015 71.4501 72.1 71.3792 69.7763C71.3327 68.2845 71.3903 66.8844 72.2367 65.4978C74.4768 61.8253 76.7103 58.1305 78.6557 54.2926C81.9151 47.8558 84.3857 41.1216 84.7956 33.808C84.8842 32.2313 84.7336 30.5941 84.3857 29.0553C84.0312 27.4898 82.4092 27.0402 81.1484 28.0422C80.404 28.6326 79.6639 29.3237 79.172 30.1267C78.926 30.5291 78.6779 30.9309 78.4296 31.3331C77.1171 33.459 75.7998 35.5929 74.7582 37.8517C70.2115 47.706 68.0157 58.1395 67.6434 68.9845C67.6301 69.414 67.4617 69.9776 67.1626 70.2325C62.8352 73.9206 58.273 77.2777 53.1368 79.7356C51.4795 80.5274 49.7246 81.1693 47.9542 81.6501C46.6868 81.9946 45.2155 82.1243 44.2428 80.9255C43.2568 79.7088 43.7731 78.3736 44.3691 77.1412C44.5729 76.7185 44.8831 76.3137 45.2355 76.0095C46.0324 75.3201 46.8666 74.6757 47.7005 74.0317L47.9254 73.858C48.5032 73.4115 49.0871 72.9723 49.6709 72.5331L49.6728 72.5317L49.6736 72.5311C50.8642 71.6355 52.0547 70.7399 53.1945 69.783C54.4486 68.7318 55.2485 67.334 55.3504 65.6387C55.4302 64.3101 55.0956 63.1002 53.9788 62.2771C52.8798 61.4675 51.7232 61.7448 50.6264 62.2972L50.5918 62.3146C49.9788 62.6228 49.3175 62.9553 48.8804 63.4558C48.5293 63.8582 48.1738 64.2583 47.818 64.6587L47.8177 64.659L47.8165 64.6603L47.8149 64.6621L47.8147 64.6623C46.3998 66.2544 44.9808 67.8511 43.8218 69.6175C41.9251 72.5071 40.4738 75.6696 40.0528 79.1922C39.603 82.963 42.0669 85.5529 45.7827 85.0944C47.1211 84.9289 48.4682 84.5465 49.7202 84.0365C55.6894 81.6032 61.1091 78.2484 65.9661 73.9743C66.3579 73.6296 66.758 73.2945 67.1442 72.9711C67.3193 72.8244 67.4916 72.6801 67.6589 72.5384C67.8297 73.0547 67.9804 73.5677 68.1288 74.0727L68.1289 74.073L68.1291 74.0736C68.4467 75.1543 68.7537 76.1989 69.2232 77.1636C70.6391 80.0734 73.6481 80.7443 76.163 78.7449C77.0901 78.0067 77.8749 77.0684 78.6473 76.145L78.6545 76.1364C78.702 76.0796 78.7496 76.0228 78.7971 75.9661C78.8312 75.9253 78.8653 75.8846 78.8995 75.844C79.4481 75.1911 79.9503 74.4976 80.5024 73.7352L80.5026 73.735ZM106.369 79.124C106.424 79.1452 106.479 79.1665 106.534 79.1877H106.532C106.405 79.9661 106.289 80.7474 106.174 81.5286L106.174 81.5293C105.921 83.2439 105.668 84.9583 105.285 86.6422L105.106 87.4294C104.069 91.986 103.031 96.5521 101.677 101.014C101.004 103.235 99.7431 105.371 98.3627 107.256C96.3242 110.041 94.3056 109.621 93.1423 106.346C91.7797 102.51 92.1608 98.7083 93.7074 95.0203C96.0538 89.4199 99.8871 84.9178 104.221 80.8047C104.655 80.3957 105.107 80.0072 105.559 79.6184C105.775 79.4332 105.99 79.2478 106.204 79.0602L106.256 79.0802L106.282 79.0901L106.369 79.124ZM96.7208 26.2887L97.1462 26.3558V26.3536C97.1619 26.517 97.1818 26.6805 97.2018 26.8438C97.2465 27.2103 97.2911 27.5765 97.288 27.9415C97.2592 32.0434 96.271 35.9685 95.0789 39.849C92.8211 47.196 89.5905 54.1204 86.0674 60.9173C85.9921 61.0649 85.8747 61.1902 85.642 61.2684C87.3769 48.954 90.9709 37.2658 96.7208 26.2887ZM72.142 62.1826C72.1012 62.2352 72.0605 62.2879 72.0217 62.342V62.3398C73.3778 50.6202 76.748 39.641 83.1116 29.7196L83.1401 29.7229L83.1532 29.7245L83.181 29.7276L83.2153 29.7315L83.28 29.7386C83.3359 29.7448 83.3919 29.7509 83.4484 29.7576C83.428 30.1834 83.4121 30.6094 83.3962 31.0353L83.3961 31.0364C83.3619 31.9525 83.3276 32.8685 83.249 33.7812C82.6485 40.6944 80.0583 46.9679 77.0316 53.0804C75.9999 55.1647 74.888 57.21 73.7764 59.2549L73.776 59.2556L73.775 59.2574L73.7709 59.2649C73.3062 60.1198 72.8416 60.9746 72.3829 61.832C72.3164 61.9571 72.2293 62.0697 72.142 62.1826ZM46.4054 72.1672L46.0597 71.8518L46.0575 71.8496C46.4292 71.3747 46.7964 70.8958 47.1637 70.4168L47.1639 70.4166L47.1657 70.4143C48.1247 69.1636 49.0842 67.9122 50.1234 66.7323C50.4015 66.4164 50.8912 66.2887 51.3808 66.161C51.6051 66.1025 51.8294 66.044 52.0334 65.9674C51.9807 66.1674 51.9433 66.3784 51.9058 66.5894C51.8233 67.0531 51.7408 67.5174 51.4972 67.8663C50.181 69.7472 48.3331 71.0198 46.4054 72.1672Z" fill="black"/>
<path d="M81.3514 89.4286H86.6692V90.4686H84.52V97.5137H83.4453V90.4686H81.3514V89.4286Z" fill="black"/>
<path d="M79.9185 89.4286H74.7114V97.5137H80.0736V96.4737H75.7861V93.9688H79.4753V92.9288H75.7861V90.4686H79.9185V89.4286Z" fill="black"/>
<path fill-rule="evenodd" clip-rule="evenodd" d="M69.5356 89.4286C69.9419 89.4286 70.3149 89.4845 70.6546 89.5963C71.0017 89.7007 71.3009 89.861 71.552 90.0772C71.8105 90.2859 72.0099 90.5469 72.1502 90.86C72.298 91.1657 72.3718 91.5235 72.3718 91.9335C72.3718 92.2541 72.3238 92.5672 72.2278 92.8729C72.1392 93.1785 71.9877 93.4581 71.7736 93.7116C71.5849 93.9282 71.3448 94.1102 71.0531 94.2575L73.0587 97.5137H71.8179L69.9335 94.5318C69.8478 94.5367 69.7595 94.5391 69.6686 94.5391H68.4832V97.5137H67.4085V89.4286H69.5356ZM69.6464 93.4991C69.964 93.4991 70.2262 93.4507 70.433 93.3537C70.6472 93.2568 70.8134 93.1338 70.9316 92.9847C71.0497 92.8282 71.1347 92.6604 71.1864 92.4815C71.2381 92.3026 71.2639 92.1348 71.2639 91.9783C71.2639 91.8143 71.2344 91.6465 71.1753 91.475C71.1236 91.2961 71.035 91.1321 70.9094 90.983C70.7912 90.8339 70.6324 90.7109 70.433 90.614C70.241 90.5171 70.0046 90.4686 69.724 90.4686H68.4832V93.4991H69.6464Z" fill="black"/>
<path fill-rule="evenodd" clip-rule="evenodd" d="M64.4535 89.7305C64.0399 89.5292 63.5414 89.4286 62.9579 89.4286H60.8197V97.5137H61.8943V94.5391H63.0797C63.5672 94.5391 63.9808 94.4646 64.3206 94.3155C64.6603 94.1664 64.9336 93.9688 65.1404 93.7228C65.3546 93.4693 65.5097 93.1897 65.6057 92.8841C65.7017 92.571 65.7497 92.2541 65.7497 91.9335C65.7497 91.4042 65.6352 90.9532 65.4063 90.5804C65.1847 90.2077 64.8671 89.9244 64.4535 89.7305ZM63.8553 93.3426C63.6485 93.4469 63.3863 93.4991 63.0687 93.4991H61.8943V90.4686H63.1351C63.4232 90.4686 63.6632 90.5171 63.8553 90.614C64.0547 90.7034 64.2135 90.8227 64.3316 90.9718C64.4572 91.1135 64.5458 91.2738 64.5975 91.4527C64.6492 91.6241 64.6751 91.7919 64.6751 91.9559C64.6751 92.0976 64.6492 92.2578 64.5975 92.4368C64.5458 92.6157 64.4609 92.7872 64.3427 92.9512C64.2245 93.1077 64.0621 93.2382 63.8553 93.3426Z" fill="black"/>
<path d="M55.2868 94.8187L52.3177 89.4286H53.6361L55.8566 93.5881L58.0455 89.4286H59.3528L56.3615 94.8187V97.5137H55.2868V94.8187Z" fill="black"/>
<path d="M50.8073 97.2118C51.0363 97.1 51.2172 96.9993 51.3502 96.9099L50.8959 95.9481C50.6891 96.1047 50.4269 96.2464 50.1093 96.3731C49.7917 96.4998 49.4298 96.5632 49.0236 96.5632C48.5731 96.5632 48.1669 96.4849 47.805 96.3284C47.443 96.1718 47.1328 95.9556 46.8743 95.6798C46.6232 95.4039 46.4275 95.0796 46.2872 94.7069C46.1542 94.3266 46.0877 93.9166 46.0877 93.4768C46.0877 93.0444 46.1616 92.6418 46.3093 92.269C46.4644 91.8888 46.6749 91.557 46.9408 91.2737C47.2067 90.9904 47.5132 90.7705 47.8603 90.614C48.2075 90.4574 48.5768 90.3791 48.9682 90.3791C49.3523 90.3791 49.6994 90.4462 50.0096 90.5804C50.3272 90.7146 50.5968 90.8563 50.8184 91.0054L51.2505 89.9989C50.9698 89.82 50.6337 89.6672 50.2423 89.5404C49.8508 89.4062 49.4151 89.3391 48.935 89.3391C48.3589 89.3391 47.8271 89.4435 47.3396 89.6522C46.8596 89.861 46.4423 90.1555 46.0877 90.5357C45.7332 90.9084 45.4562 91.352 45.2568 91.8664C45.0648 92.3734 44.9688 92.9288 44.9688 93.5327C44.9688 94.0844 45.0611 94.6062 45.2458 95.0983C45.4378 95.5828 45.7074 96.0115 46.0545 96.3843C46.4016 96.757 46.8226 97.0515 47.3175 97.2677C47.8197 97.4839 48.381 97.5957 49.0015 97.6032C49.3634 97.6032 49.6957 97.5659 49.9986 97.4914C50.3088 97.4168 50.5783 97.3236 50.8073 97.2118Z" fill="black"/>
</svg>
